<?xml version="1.0" standalone="no"?>
<!DOCTYPE svg PUBLIC "-//W3C//DTD SVG 20010904//EN"
 "http://www.w3.org/TR/2001/REC-SVG-20010904/DTD/svg10.dtd">
<svg version="1.0" xmlns="http://www.w3.org/2000/svg"
 width="96.000000pt" height="96.000000pt" viewBox="0 0 96.000000 96.000000"
 preserveAspectRatio="xMidYMid meet">
<metadata>
Created by potrace 1.16, written by Peter Selinger 2001-2019
</metadata>
<g transform="translate(0.000000,96.000000) scale(0.100000,-0.100000)"
fill="#000000" stroke="none">
<path d="M90 480 l0 -250 390 0 390 0 0 250 0 250 -390 0 -390 0 0 -250z m750
0 l0 -220 -360 0 -360 0 0 220 0 220 360 0 360 0 0 -220z"/>
<path d="M190 580 l0 -50 15 0 15 0 0 35 0 35 35 0 35 0 0 15 0 15 -50 0 -50
0 0 -50z"/>
<path d="M670 615 l0 -15 35 0 35 0 0 -35 0 -35 15 0 15 0 0 50 0 50 -50 0
-50 0 0 -15z"/>
<path d="M190 380 l0 -50 50 0 50 0 0 15 0 15 -35 0 -35 0 0 35 0 35 -15 0
-15 0 0 -50z"/>
<path d="M740 395 l0 -35 -35 0 -35 0 0 -15 0 -15 50 0 50 0 0 50 0 50 -15 0
-15 0 0 -35z"/>
</g>
</svg>
