<?xml version="1.0" standalone="no"?>
<!DOCTYPE svg PUBLIC "-//W3C//DTD SVG 20010904//EN"
 "http://www.w3.org/TR/2001/REC-SVG-20010904/DTD/svg10.dtd">
<svg version="1.0" xmlns="http://www.w3.org/2000/svg"
 width="48.000000pt" height="48.000000pt" viewBox="0 0 48.000000 48.000000"
 preserveAspectRatio="xMidYMid meet">
<metadata>
Created by potrace 1.16, written by Peter Selinger 2001-2019
</metadata>
<g transform="translate(0.000000,48.000000) scale(0.100000,-0.100000)"
fill="#000000" stroke="none">
<path d="M80 435 l0 -45 -40 0 -40 0 0 -15 0 -15 40 0 40 0 0 -140 0 -140 140
0 140 0 0 -40 0 -40 15 0 15 0 0 40 0 40 45 0 45 0 0 15 0 15 -45 0 -45 0 0
140 0 140 -140 0 -140 0 0 45 0 45 -15 0 -15 0 0 -45z m280 -200 l0 -125 -125
0 -125 0 0 125 0 125 125 0 125 0 0 -125z"/>
</g>
</svg>
