<?xml version="1.0" standalone="no"?>
<!DOCTYPE svg PUBLIC "-//W3C//DTD SVG 20010904//EN"
 "http://www.w3.org/TR/2001/REC-SVG-20010904/DTD/svg10.dtd">
<svg version="1.0" xmlns="http://www.w3.org/2000/svg"
 width="48.000000pt" height="48.000000pt" viewBox="0 0 48.000000 48.000000"
 preserveAspectRatio="xMidYMid meet">

<g transform="translate(0.000000,48.000000) scale(0.100000,-0.100000)"
fill="#000000" stroke="none">
<path d="M80 435 l0 -45 -40 0 c-29 0 -40 -4 -40 -15 0 -11 11 -15 40 -15 l40
0 0 -140 0 -140 140 0 140 0 0 -40 c0 -29 4 -40 15 -40 11 0 15 11 15 40 l0
40 45 0 c33 0 45 4 45 15 0 11 -12 15 -45 15 l-45 0 0 140 0 140 -140 0 -140
0 0 45 c0 33 -4 45 -15 45 -11 0 -15 -12 -15 -45z m280 -200 l0 -125 -125 0
-125 0 0 125 0 125 125 0 125 0 0 -125z"/>
</g>
</svg>
